<svg id="SETI_GATHERING" data-name="SETI GATHERING" xmlns="http://www.w3.org/2000/svg" viewBox="0 0 1900 771.72"><defs><style>.cls-1,.cls-2{fill:#ddd8b9;}.cls-2,.cls-3{stroke:#000;stroke-miterlimit:10;}.cls-2{stroke-width:12px;}.cls-3{fill:#fff;stroke-width:5px;}</style></defs><title>Logo_web_12</title><g id="Layer_42" data-name="Layer 42"><path d="M1911,851.54c0,12.91-3,20.65-21.38,20.65H58.87C20.16,872.19,11,854.12,11,823.14V626.92C11,588.19,26.27,583,75.15,583h1805c21.74,0,30.9,10.32,30.9,25.81Z" transform="translate(-11 -131.8)"/><path d="M134.62,841.56h85.53v51.63c0,5.17,0,10.33-12.21,10.33h-61.1q-12.21,0-12.22-7.75Z" transform="translate(-11 -131.8)"/><path d="M1810.09,841.14h85.53v51.63c0,5.17,0,10.33-12.22,10.33h-61.09q-12.22,0-12.22-7.74Z" transform="translate(-11 -131.8)"/></g><g id="SETI_copy" data-name="SETI copy"><g id="Hintergrund_final_copy" data-name="Hintergrund_final copy"><path d="M355.08,604.14H1560.51c44.49,0,34.14-24.83,34.14-54.84v-91c0-42.42-23-39.05-37.25,0-4.13,11.38,3.11,21.73-13.45,16.56-25.67-8-91-37.25-91-62.09V207.85c0-52.77-26.9-76-69.84-76H259.89c-35.18,0-70.36,60.53-6.21,118.48,41.65,37.62,158.31,118,145.89,144.85C388,420.25,313.69,373.41,313.69,450c0,26.75-.66,70-.66,104.3S325.75,604.14,355.08,604.14Z" transform="translate(-11 -131.8)"/></g><g id="Background_final_schüssel_copy" data-name="Background_final_schüssel copy"><path d="M1594.65,506.88c-.52-39.16,4.1-56.89,43.46-70.36s73.41-35.44,69.33-81.74c-3.11-35.18-15-63.63-30.53-87.43s21.73-35.18,43.46-53.81,25.87-44.49,13.45-60-40.87-22.25-63.12-4.14c-22.69,18.48-49.66,41.39-70.36,25.87s-66.73-42.94-94.67-42.94c-25.89,0-148.48-.52-148.48-.52l71.39,59,4.14,131.41,10.35,151.06,55.87,24.84Z" transform="translate(-11 -131.8)"/></g><g id="Schuessel_copy" data-name="Schuessel copy"><polygon class="cls-1" points="1681.06 67.25 1548.94 180.03 1534.25 162.22 1670.04 53.9 1681.06 67.25"/><ellipse class="cls-1" cx="1696.01" cy="184.57" rx="23.08" ry="17.89" transform="translate(259.44 989.93) rotate(-39.53)"/><polygon class="cls-1" points="1636.76 69.11 1492.73 166.18 1489.26 160.68 1632.94 64.1 1636.76 69.11"/><polyline class="cls-1" points="1628.31 67.54 1632.94 64.1 1646.84 80.69 1642.19 84.11"/><path class="cls-2" d="M1674.63,386.43c59.6-49.19-118.51-265-178.11-215.83a139.92,139.92,0,1,0,178.11,215.83Z" transform="translate(-11 -131.8)"/></g><g id="S_copy" data-name="S copy"><path class="cls-1" d="M256.26,190.78c0-25.87,21.06-26.9,33.29-26.9H581.16c13.12,0,18.63,2.07,18.63,12.41v69.33c0,9.31-15.52,8.28-15.52,0,0-8.08-11.39-38.28-23.8-38.28H464.24S596.68,508.43,605,526s10.7,40.36-17.41,40.36H373.71c-15,0-30.53-2.07-30.53-22.77V467.05c0-12.42,20.18-12.94,20.18.51,0,10.87,5.69,38.8,32.59,38.8H537.7S487,418.41,422.85,354.26,281.1,229.06,270.75,217.68,256.26,202.16,256.26,190.78Z" transform="translate(-11 -131.8)"/></g><g id="S_b_copy" data-name="S_b copy"><path d="M356.37,207.34c-15.78,0-25.09,1.55-13.71,15,5.15,6.09,38.29,35.18,65.57,64.75,31.44,34.06,100,108,100,108L412,207.85l-34.92-.51" transform="translate(-11 -131.8)"/></g><g id="E_2_copy" data-name="E_2 copy"><path class="cls-1" d="M690.57,479.46H853.43c8.65,0,10.48-1.28,13.76-3.83,10.41-8.07,30.75-25.3,34.73-29.28,5.17-5.17,3.64-9.31-3.35-9.31H692.35l-1.78,42.42" transform="translate(-11 -131.8)"/></g><g id="E_copy_2" data-name="E copy 2"><path class="cls-1" d="M705.84,163.88h138.4c11.12,0,16.94,3.88,16.94,16.94v65.83c0,11.39-16.17,11.39-16.17,0,0,0-.09-39.31-48.16-39.31s-81.18,23.79-81.18,74.49v120c0,32.08,13.45,104.5,76.57,104.5H947.45c23.79,0,41.38-21.72,41.38-32.07s15.53-13.45,15.53,0v68.29c0,11.38.48,23.8-11.66,23.8H741c-97.26,0-111.23-66.74-111.23-134V248.21C629.79,193.37,648.93,163.88,705.84,163.88Z" transform="translate(-11 -131.8)"/></g><g id="E_b_copy" data-name="E_b copy"><path d="M666,437.56V234.24c0-14.49,7.24-26.9,14.48-26.9h24.84a58.82,58.82,0,0,0-14,15c-6.21,9.31-8.85,17.78-8.85,30.58,0,60.47-.46,184.64-.46,184.64Z" transform="translate(-11 -131.8)"/><path d="M669.11,479.46a52.55,52.55,0,0,0,3.62,14c3.11,7.24,7.25,11.9,15,11.9h26.9s-10.22-8.38-13.45-12.42a131.14,131.14,0,0,1-8.9-13.45Z" transform="translate(-11 -131.8)"/></g><g id="T_2_copy" data-name="T_2 copy"><path class="cls-1" d="M1296.21,175.88c0-8.27-2.08-12.41-10.35-12.41H1157.15c-36.83,0-56.38,25.86-56.38,43.45v348.7c0,9.31-1.56,14.89,6.67,6.67s24.26-26.33,28.4-30.47,4.13-8.28,4.13-13.45V299c0-47.59,38.29-81.74,83.82-81.74s56.9,17.59,56.9,29,15.52,11.38,15.52,0Z" transform="translate(-11 -131.8)"/></g><g id="T_1_copy" data-name="T_1 copy"><path class="cls-1" d="M887.43,176.29c0-8.27,2.09-12.41,10.36-12.41H1026.5c36.83,0,56.38,25.87,56.38,43.46V556c0,9.31,1.55,14.89-6.67,6.67s-24.26-26.33-28.4-30.47-4.14-8.28-4.14-13.45V299.42c0-47.59-38.28-81.74-83.81-81.74S903,235.27,903,246.65s-15.52,11.39-15.52,0Z" transform="translate(-11 -131.8)"/></g><g id="I_copy_2" data-name="I copy 2"><path class="cls-1" d="M1178.47,554.07c0,8.27,2.09,12.41,10.36,12.41h115.26c36.83,0,56.38-25.87,56.38-43.46V174.33c0-9.31,1.55-14.89-6.67-6.67s-24.26,26.33-28.4,30.47-4.14,8.28-4.14,13.45V430.94c0,47.59-24.6,75.53-51.5,75.53-6.51,0-29,1.17-34.15.41-31.06-4.54-41.62-22.73-41.62-32.49,0-11.38-15.52-11.38-15.52,0Z" transform="translate(-11 -131.8)"/><path class="cls-1" d="M1559,553.39c0,8.28-2.08,12.42-10.35,12.42H1433.39c-36.84,0-56.39-25.87-56.39-43.46V173.66c0-9.31-1.55-14.9,6.67-6.67s24.27,26.33,28.4,30.47,4.14,8.27,4.14,13.45V430.26c0,47.6,24.61,75.54,51.51,75.54,6.5,0,29,1.17,34.14.41,31.06-4.54,41.62-22.73,41.62-32.49,0-11.38,15.52-11.38,15.52,0Z" transform="translate(-11 -131.8)"/></g><g id="Layer_28_copy" data-name="Layer 28 copy"><path d="M1474.15,259.7c6.89-49,36-73.72,47.4-75.5s36.83,16.35,36.83,16.35-39,19.95-48.57,68.35,1.7,97.38,1.7,97.38S1464,331.89,1474.15,259.7Z" transform="translate(-11 -131.8)"/></g><g id="Layer_32_copy" data-name="Layer 32 copy"><path class="cls-3" d="M1672.84,188.52s8.57-2,13.83,4,2.06,13.83,2.06,13.83" transform="translate(-11 -131.8)"/></g></g><g id="GATHERING_copy" data-name="GATHERING copy"><g id="G_copy" data-name="G copy"><path class="cls-1" d="M64.71,617.63c-12.34,0-21.24,5.52-21.24,24.41V819.58c0,12.78-1.17,24.11,16.69,24.11H161v31.09c0,2.91-.62,5.82,3,5.82h8.36c3,0,3-2.33,3-5.23V797.78c0-13.94-19.39-15.69-12.83-15.69h14.92c3.58,0,7.52,2.74,7.52,13.57v80c0,3.48.83,4.65,3.22,4.65h6c2.39,0,3.58-.59,3.58-4.07v-92.4c0-7.56.27-12.79-8.81-12.79H144.55c-9.55,0-8.47,16.27.59,16.27,7.76,0,16.07,5.16,16.07,12.79V810h-46.7c-15.3,0-20.36-8.89-20.36-23V668.77c0-13.95-.58-26.73,16-26.73h67.24c9.55,0,16.11,10.46,16.11,19.76,0,7,8.95,7,8.95,0V635.06c0-9.29-4.82-17.51-23-17.51S64.71,617.63,64.71,617.63Z" transform="translate(-11 -131.8)"/><path d="M68.08,642.33h8.48c3.85,0-2.71.29-2.71,6.1V801.27c0,6.39,7.76,9,5.87,9H68.08c-2,0-3.18-3.78-3.18-10.17V647.85C64.9,644.36,65.9,642.33,68.08,642.33Z" transform="translate(-11 -131.8)"/></g><g id="A_copy" data-name="A copy"><path class="cls-1" d="M411.81,843.69H382.58S374.52,826,371,817.83,357.5,810,357.5,810H297.62s-9,.87-12.58,9S274,843.69,274,843.69h-19.7L269.84,810H258.18L243,843.69h-34.6L314,617.63Z" transform="translate(-11 -131.8)"/><polygon points="265.19 639.54 303.1 557.02 308.04 568.06 276.43 639.54 265.19 639.54"/><polyline points="294.92 639.25 317.59 589.56 339.31 639.25 309.21 639.25"/></g><g id="T_copy" data-name="T copy"><path class="cls-1" d="M603.08,624.3c0-4.65-1.2-7-6-7H522.9c-21.24,0-32.51,14.53-32.51,24.41V837.58c0,5.23-.89,8.37,3.85,3.75s14-14.79,16.37-17.11,2.39-4.65,2.39-7.56V693.46c0-26.73,22.07-45.91,48.32-45.91s32.81,9.88,32.81,16.27a4.49,4.49,0,1,0,9,0Z" transform="translate(-11 -131.8)"/><path class="cls-1" d="M367.39,624.53c0-4.64,1.2-7,6-7h74.21c21.24,0,32.51,14.53,32.51,24.41V837.81c0,5.23.89,8.37-3.85,3.75s-14-14.79-16.37-17.11-2.39-4.65-2.39-7.56V693.69c0-26.73-22.07-45.91-48.32-45.91s-32.81,9.88-32.81,16.27a4.49,4.49,0,1,1-8.95,0Z" transform="translate(-11 -131.8)"/></g><g id="H_copy" data-name="H copy"><path class="cls-1" d="M682.68,617.63c9.82,0,14,4.36,14,15.4V771.34s10.73-.2,33.4-.2,36-21.88,36-40.48V627.22c0-7-1-13.8,3.33-9.59,7.32,7.13,12.53,11.91,18.49,17.72,5.68,5.53,6,3.49,6,16.86V836.94c0,4-.6,6.46-4.18,6.46H776.62c-8.12,0-10.15.58-10.15-7.55V810h-70s-.42,25.86-.42,28.76-.6,4.82-4.18,4.82H639c-6,0-5.66-4.57-5.66-9.57V633c0-7.55-.5-15.69,10.84-15.69h38.5" transform="translate(-11 -131.8)"/><path d="M672.22,810.28H659.69V838c0,6.11-3.69,6-3.69,6h18.6c-2.38,0-2.38-3.67-2.38-3.67Z" transform="translate(-11 -131.8)"/><path d="M668.49,642c1.94,0,3.43,1.13,3.43,3.9v96c0,9.63.3,29.1.3,29.1H660V646.23c0-2.16-.17-4.19,2.45-4.19h6" transform="translate(-11 -131.8)"/></g><g id="E_copy" data-name="E copy"><path class="cls-1" d="M862.79,794.28h93.9c5,0,6-.72,7.93-2.15,6-4.53,17.73-14.21,20-16.44,3-2.91,2.1-5.23-1.94-5.23H863.82l-1,23.82" transform="translate(-11 -131.8)"/><path class="cls-1" d="M871.6,617h79.79c6.41,0,9.77,2.18,9.77,9.51v37c0,6.39-9.33,6.39-9.33,0,0,0-.05-22.09-27.76-22.09s-46.81,13.37-46.81,41.85V750.7c0,18,7.76,58.69,44.15,58.69h89.49c13.72,0,23.86-12.2,23.86-18s9-7.56,9,0v38.35c0,6.4.28,13.37-6.72,13.37H891.88c-56.08,0-64.13-37.48-64.13-75.26V664.4C827.75,633.6,838.78,617,871.6,617Z" transform="translate(-11 -131.8)"/><path d="M848.63,770.75V656.55c0-8.13,4.17-15.11,8.35-15.11H871.3a33.54,33.54,0,0,0-8.06,8.43c-3.58,5.23-5.1,10-5.1,17.18,0,34-.27,103.7-.27,103.7Z" transform="translate(-11 -131.8)"/><path d="M850.42,794.28a28.43,28.43,0,0,0,2.09,7.85c1.78,4.07,4.17,6.68,8.65,6.68h15.51s-5.9-4.7-7.76-7a73.36,73.36,0,0,1-5.13-7.56Z" transform="translate(-11 -131.8)"/></g><g id="R_copy" data-name="R copy"><path class="cls-1" d="M1213.47,617.63c12.67,0,25.79,7,11.47,35.45s-81.46,118-81.46,118h68.14c8.55,0,8.62,8,8.62,15.9v23c0,9.3,7.69,18,13.65,18,10.74,0,10.74,15.57,0,15.57-8.35,0-24.83.23-30.42.23s-10.74-3.59-10.74-9.4V820.45c0-4.07,0-10.46-7-10.46h-51.7c-4.58,0-5.77,2.32-5.77,6.39v15.69c0,4.07,2.36,11.5-7.77,11.5h-43.7c-4.61,0-9.38-4.53-9.38-10.34V628.67c0-7,3.79-11,9.54-11Z" transform="translate(-11 -131.8)"/><path d="M1101.44,642c3.53,0,4.56.58,4.56,4.65V771.05h-14.88V647.85c0-4.65,1.5-5.81,3.83-5.81h7.51" transform="translate(-11 -131.8)"/><rect x="1080.12" y="678.77" width="14.88" height="33.23"/><path d="M1178.11,642.33c9.55,0,18.5,11,9.55,25s-57.87,89.49-57.87,89.49V642.33Z" transform="translate(-11 -131.8)"/></g><g id="I_copy" data-name="I copy"><path class="cls-1" d="M1261.76,837.12c0,4.65,1.2,7,6,7h66.45c21.24,0,32.51-14.53,32.51-24.41V623.84c0-5.23.89-8.37-3.85-3.75s-14,14.79-16.37,17.11-2.39,4.65-2.39,7.56V768c0,26.73-14.18,42.42-29.69,42.42-3.75,0-16.7.66-19.69.24-17.91-2.56-24-12.77-24-18.25a4.48,4.48,0,1,0-8.94,0Z" transform="translate(-11 -131.8)"/><path class="cls-1" d="M1481.16,836.74c0,4.65-1.21,7-6,7h-66.46c-21.24,0-32.51-14.53-32.51-24.4V623.46c0-5.23-.89-8.36,3.85-3.75s14,14.79,16.37,17.12,2.39,4.65,2.39,7.55v123.2c0,26.74,14.18,42.43,29.7,42.43,3.75,0,16.7.65,19.68.23,17.91-2.55,24-12.77,24-18.25a4.49,4.49,0,1,1,9,0Z" transform="translate(-11 -131.8)"/></g><g id="N_copy" data-name="N copy"><path class="cls-1" d="M1508,632.45c0-7-3.28-30.51,43,14.53,50.71,49.39,101.42,124.36,101.42,124.36V622.57c0-5.23,3.88-4.36,7.75-.58s12.53,11.62,15.52,14.53,5.36,4.07,5.36,8.71V826.55c0,7.56,1.79,16.85-6,16.85h-19.69c-5.37,0-2-15.92-32.81-46.49-29.83-29.64-29.83-29.64-39.37-37.19-8.85-7-10.74-5.23-10.74,9.3v66.25c0,5.23.42,8.82-4.27,8.82h-54.13c-6.63,0-6-5.92-6-12.31V632.45Z" transform="translate(-11 -131.8)"/><polyline points="1522.8 584.92 1536.43 597.37 1536.43 715.09 1522.67 715.09 1522.8 584.92"/></g><g id="G_copy-2" data-name="G copy"><path class="cls-1" d="M1739.3,617.63c-12.34,0-21.24,5.52-21.24,24.41V819.58c0,12.78-1.18,24.11,16.69,24.11h100.8v31.09c0,2.91-.61,5.82,3,5.82h8.35c3,0,3-2.33,3-5.23V797.78c0-13.94-19.39-15.69-12.83-15.69h14.91c3.58,0,7.53,2.74,7.53,13.57v80c0,3.48.83,4.65,3.21,4.65h6c2.38,0,3.58-.59,3.58-4.07v-92.4c0-7.56.27-12.79-8.82-12.79h-44.28c-9.54,0-8.46,16.27.6,16.27,7.75,0,16.07,5.16,16.07,12.79V810h-46.7c-15.31,0-20.36-8.89-20.36-23V668.77c0-13.95-.59-26.73,16-26.73h67.24c9.56,0,16.12,10.46,16.12,19.76,0,7,9,7,9,0V635.06c0-9.29-4.83-17.51-23-17.51S1739.3,617.63,1739.3,617.63Z" transform="translate(-11 -131.8)"/><path d="M1742.67,642.33h8.48c3.85,0-2.71.29-2.71,6.1V801.27c0,6.39,7.75,9,5.87,9h-11.64c-2,0-3.18-3.78-3.18-10.17V647.85C1739.49,644.36,1740.48,642.33,1742.67,642.33Z" transform="translate(-11 -131.8)"/></g></g></svg>